<svg width="33" height="33" viewBox="0 0 33 33" fill="none" xmlns="http://www.w3.org/2000/svg">
<path d="M23.662 17.1706C23.9421 16.8907 23.9421 16.4366 23.662 16.1563C23.3821 15.8762 22.9278 15.8762 22.6476 16.1563L17.2152 21.5888L17.2152 7.15487C17.2152 6.75756 16.8929 6.4353 16.4956 6.4353C16.0981 6.4353 15.7761 6.75756 15.7761 7.15487L15.7761 21.5815L10.3436 16.1491C10.2093 16.0143 10.0265 15.9386 9.83633 15.9386C9.64591 15.9386 9.46359 16.0143 9.32906 16.1491C9.19316 16.2839 9.1179 16.4684 9.12037 16.66C9.12128 16.8509 9.19609 17.0341 9.32906 17.1706L15.9845 23.8263C16.1202 23.9618 16.3043 24.0373 16.4956 24.0352C16.6865 24.0339 16.869 23.9591 17.0063 23.8263L23.662 17.1706Z" fill="#006C9E"/>
<path d="M31.9658 16.5089C31.9669 10.2518 28.198 4.61046 22.4172 2.21605C16.6361 -0.177922 9.98219 1.14628 5.55911 5.57206C-0.481362 11.6125 -0.481362 21.4056 5.55911 27.4459C11.5991 33.4861 21.3922 33.4861 27.4327 27.4459C30.3434 24.5516 31.9757 20.6135 31.9658 16.5089ZM2.46496 16.5089C2.46496 8.77393 8.76098 2.47814 16.4959 2.47814C24.2308 2.47814 30.5266 8.77394 30.5266 16.5089C30.5266 24.2438 24.2308 30.5398 16.4959 30.5398C8.76098 30.5398 2.46496 24.2438 2.46496 16.5089Z" fill="#4C828F"/>
</svg>
