<svg width="17" height="17" viewBox="0 0 17 17" fill="none" xmlns="http://www.w3.org/2000/svg">
<path d="M12.0618 0H4.93823C2.21528 0 0 2.21528 0 4.93823V12.0618C0 14.7847 2.21528 17 4.93823 17H12.0618C14.7847 17 17 14.7847 17 12.0618V4.93823C17 2.21528 14.7847 0 12.0618 0ZM15.6719 12.0618C15.6719 14.0524 14.0524 15.6719 12.0618 15.6719H4.93823C2.94761 15.6719 1.32812 14.0524 1.32812 12.0618V4.93823C1.32812 2.94761 2.94761 1.32812 4.93823 1.32812H12.0618C14.0524 1.32812 15.6719 2.94761 15.6719 4.93823V12.0618Z" fill="white"/>
<path d="M8.5 3.91797C5.97344 3.91797 3.91797 5.97344 3.91797 8.5C3.91797 11.0266 5.97344 13.082 8.5 13.082C11.0266 13.082 13.082 11.0266 13.082 8.5C13.082 5.97344 11.0266 3.91797 8.5 3.91797ZM8.5 11.7539C6.7058 11.7539 5.24609 10.2942 5.24609 8.5C5.24609 6.7058 6.7058 5.24609 8.5 5.24609C10.2942 5.24609 11.7539 6.7058 11.7539 8.5C11.7539 10.2942 10.2942 11.7539 8.5 11.7539Z" fill="white"/>
<path d="M13.1484 4.51562C13.5152 4.51562 13.8125 4.21831 13.8125 3.85156C13.8125 3.48481 13.5152 3.1875 13.1484 3.1875C12.7817 3.1875 12.4844 3.48481 12.4844 3.85156C12.4844 4.21831 12.7817 4.51562 13.1484 4.51562Z" fill="white"/>
</svg>
