<svg width="21" height="13" viewBox="0 0 21 13" fill="none" xmlns="http://www.w3.org/2000/svg">
<path d="M17.4256 7.22445C17.0861 6.7957 17.1833 6.60495 17.4256 6.2217C17.43 6.21733 20.2326 2.34458 20.5214 1.0312L20.5231 1.03033C20.6666 0.551701 20.5231 0.199951 19.8293 0.199951H17.5333C16.9488 0.199951 16.6793 0.501826 16.5349 0.839576C16.5349 0.839576 15.3659 3.63783 13.7121 5.4517C13.1784 5.97583 12.9316 6.14383 12.6403 6.14383C12.4968 6.14383 12.2736 5.97583 12.2736 5.4972V1.03033C12.2736 0.456326 12.11 0.199951 11.6261 0.199951H8.01588C7.64925 0.199951 7.43138 0.467701 7.43138 0.717076C7.43138 1.26133 8.25825 1.38645 8.344 2.9177V6.24008C8.344 6.96808 8.21188 7.10195 7.91875 7.10195C7.13825 7.10195 5.24388 4.29233 4.12125 1.0767C3.89463 0.452826 3.67325 0.200826 3.08438 0.200826H0.7875C0.132125 0.200826 0 0.502701 0 0.840451C0 1.4372 0.7805 4.40433 3.6295 8.32433C5.52825 11.0001 8.20225 12.45 10.6348 12.45C12.0969 12.45 12.2754 12.128 12.2754 11.5741C12.2754 9.01733 12.1433 8.77583 12.8756 8.77583C13.2151 8.77583 13.7996 8.94383 15.1646 10.2345C16.7248 11.7648 16.9811 12.45 17.8544 12.45H20.1504C20.8049 12.45 21.1365 12.128 20.9458 11.4927C20.5091 10.1566 17.5586 7.4082 17.4256 7.22445Z" fill="white"/>
</svg>
