<svg width="39" height="39" viewBox="0 0 39 39"  xmlns="http://www.w3.org/2000/svg">
<g clip-path="url(#clip0)">
<path d="M30.4269 16.645C30.3225 16.645 30.2162 16.6474 30.1089 16.6512C29.077 15.5876 27.7913 14.8167 26.39 14.4008C26.7115 11.0394 25.2248 7.82323 23.7529 5.54097C23.5752 5.26538 23.2051 5.19119 22.9342 5.37613C22.673 5.55445 22.6019 5.90789 22.7734 6.17381C24.118 8.25795 25.4765 11.1603 25.2427 14.1447C24.8189 14.0801 24.3885 14.0465 23.9549 14.0465C22.6577 14.0465 21.4272 14.3366 20.3239 14.8546V13.8105L23.1275 11.0069C23.3533 10.7811 23.3761 10.4103 23.1573 10.1779C22.9308 9.93738 22.5521 9.93304 22.32 10.1651L20.3238 12.1612V9.03718C20.3238 8.71787 20.0779 8.43946 19.7587 8.42994C19.4285 8.41996 19.1576 8.68481 19.1576 9.01281V12.1612L17.1616 10.1651C16.9339 9.93731 16.5647 9.93731 16.337 10.1651C16.1093 10.3928 16.1092 10.762 16.337 10.9896L19.1577 13.8103V15.5175C18.1159 16.2235 17.2373 17.1526 16.5903 18.2354C16.5014 15.8208 15.7589 13.7547 14.3647 12.0637C14.3505 12.0466 14.3357 12.0298 14.3214 12.0128C14.9918 7.56326 18.5442 3.61169 19.7419 2.38845C20.0529 2.70494 20.5216 3.20364 21.0549 3.84394C21.2575 4.08715 21.6177 4.12372 21.8654 3.92674L21.8656 3.92658C22.1222 3.7226 22.1593 3.34768 21.9496 3.0957C20.9477 1.8918 20.1722 1.17495 20.1359 1.14151C19.9129 0.936228 19.5695 0.936228 19.3464 1.14151C19.1375 1.33369 14.528 5.62651 13.3277 10.9879C11.5053 9.3552 8.92959 8.18474 5.78094 7.57286C2.9427 7.02114 0.661357 7.10897 0.565685 7.11293C0.262749 7.12557 0.0201417 7.36826 0.0074972 7.67112C0.00353626 7.76679 -0.0841376 10.0481 0.467347 12.8863C1.20629 16.689 2.75928 19.6571 4.95821 21.47C5.22268 21.688 5.49736 21.8882 5.78011 22.0744C2.13848 25.0895 0.140036 29.4835 0.0519054 29.6801C-0.0721024 29.9568 0.0365187 30.2823 0.301749 30.4289C0.530265 30.5553 5.18208 33.0914 10.1591 33.0911C10.869 33.091 11.5859 33.0383 12.2973 32.9207C13.6346 35.9179 16.6427 38.0122 20.131 38.0122C23.4442 38.0122 26.3243 36.1228 27.751 33.365C28.6111 33.6479 29.5086 33.7916 30.427 33.7916C31.9368 33.7916 33.4001 33.4005 34.6952 32.6552C34.9865 32.4875 35.0706 32.1048 34.8824 31.8262C34.71 31.571 34.3707 31.497 34.1034 31.6502C32.9875 32.2897 31.7274 32.6253 30.427 32.6253C29.6692 32.6253 28.9285 32.5108 28.2169 32.2881C28.5321 31.3962 28.7043 30.4374 28.7043 29.4389C28.7043 26.0587 26.7378 23.1295 23.8889 21.7344C25.0851 19.4854 27.3431 18.0057 29.9085 17.8289C30.0839 17.8171 30.2582 17.8111 30.427 17.8111C34.5112 17.8111 37.834 21.134 37.834 25.2181C37.834 26.882 37.2791 28.4826 36.2614 29.7819C36.0721 30.0236 36.0981 30.3693 36.3253 30.5759L36.3255 30.5761C36.5775 30.8052 36.9696 30.7689 37.1797 30.5007C38.3577 28.9968 39.0002 27.1439 39.0002 25.2181C39.0001 20.491 35.1541 16.645 30.4269 16.645ZM5.70302 20.5727C3.19666 18.5083 2.09788 15.1472 1.61754 12.6911C1.24392 10.7809 1.17552 9.10383 1.16805 8.27318C1.99353 8.28034 3.65506 8.34775 5.55845 8.71757C10.0229 9.58516 12.3222 11.4195 13.4649 12.8055C15.2496 14.9704 15.8222 17.8761 15.1729 21.4537L13.3902 19.671V14.4909C13.3902 14.1688 13.1292 13.9078 12.8071 13.9078C12.4851 13.9078 12.224 14.1688 12.224 14.4909V18.5047L9.65726 15.938V11.9488C9.65726 11.6267 9.39621 11.3657 9.07416 11.3657C8.7521 11.3657 8.49106 11.6267 8.49106 11.9488V14.7718L6.26479 12.5455C6.03703 12.3178 5.66783 12.3178 5.44023 12.5455C5.21247 12.7733 5.21247 13.1425 5.44023 13.3701L7.6665 15.5963H4.84357C4.52152 15.5963 4.26048 15.8574 4.26048 16.1794C4.26048 16.5015 4.52152 16.7625 4.84357 16.7625H8.8327L11.3995 19.3293H7.38535C7.0633 19.3293 6.80226 19.5903 6.80226 19.9124C6.80226 20.2345 7.0633 20.4955 7.38535 20.4955H12.5655L14.3482 22.2782C10.7722 22.9274 7.86752 22.3555 5.70302 20.5727ZM10.0507 26.1449L6.54449 24.3933C6.25633 24.2494 5.90617 24.3662 5.76221 24.6542C5.61832 24.9424 5.73517 25.2926 6.02317 25.4365L8.48611 26.6669L4.45784 28.0113C4.15239 28.1132 3.9874 28.4435 4.08932 28.7489C4.17082 28.9932 4.39827 29.1476 4.64233 29.1476C4.70349 29.1476 4.76573 29.1379 4.82697 29.1175L8.94893 27.742L7.65614 30.3296C7.51226 30.6177 7.6291 30.9679 7.91711 31.1119C8.00082 31.1537 8.08971 31.1734 8.17724 31.1734C8.3912 31.1734 8.59725 31.0552 8.69932 30.8508L10.5133 27.2199L11.9982 26.7243C11.7126 27.5778 11.5575 28.4906 11.5575 29.4389C11.5575 30.2592 11.6735 31.0528 11.8896 31.8045C7.54341 32.4286 2.86326 30.391 1.36016 29.6596C2.01021 28.3906 3.93538 24.9764 6.8718 22.6932C8.27154 23.3666 9.85865 23.7056 11.6258 23.7056C12.3615 23.7056 13.1292 23.6454 13.9264 23.5283C13.4253 24.054 12.9907 24.6435 12.635 25.2825L10.0507 26.1449ZM27.538 29.439C27.538 33.5232 24.2152 36.846 20.131 36.846C16.0467 36.846 12.7239 33.5232 12.7239 29.439C12.7239 25.3547 16.0467 22.0319 20.131 22.0319C24.2152 22.0319 27.538 25.3547 27.538 29.439ZM22.8037 21.2928C21.9622 21.016 21.0638 20.8656 20.131 20.8656C18.8789 20.8656 17.6888 21.1355 16.6154 21.62C17.105 18.0068 20.2095 15.2125 23.9548 15.2125C25.6478 15.2125 27.2845 15.7964 28.59 16.8424C26.1029 17.3828 23.9814 19.0021 22.8037 21.2928Z" />
<path d="M22.3596 27.0732C20.8698 27.0732 19.6576 28.2854 19.6576 29.7753C19.6576 31.2652 20.8697 32.4773 22.3596 32.4773C23.8496 32.4773 25.0618 31.2652 25.0618 29.7753C25.0618 28.2854 23.8496 27.0732 22.3596 27.0732ZM22.3596 31.3111C21.5128 31.3111 20.8239 30.6221 20.8239 29.7753C20.8239 28.9285 21.5128 28.2395 22.3596 28.2395C23.2065 28.2395 23.8956 28.9285 23.8956 29.7753C23.8956 30.622 23.2066 31.3111 22.3596 31.3111Z" />
<path d="M30.2718 18.9407C28.5244 18.9407 27.2067 19.7362 27.2067 20.7911C27.2067 21.846 28.5244 22.6416 30.2718 22.6416C32.0193 22.6416 33.337 21.846 33.337 20.7911C33.337 19.7362 32.0192 18.9407 30.2718 18.9407ZM31.7617 21.1679C31.379 21.3633 30.836 21.4754 30.2717 21.4754C29.7075 21.4754 29.1645 21.3633 28.7818 21.1679C28.4818 21.0147 28.3728 20.8586 28.3728 20.7911C28.3728 20.7236 28.4817 20.5676 28.7818 20.4143C29.1645 20.2189 29.7075 20.1069 30.2717 20.1069C30.836 20.1069 31.379 20.2189 31.7617 20.4143C32.0618 20.5676 32.1707 20.7236 32.1707 20.7911C32.1707 20.8587 32.0618 21.0147 31.7617 21.1679Z" />
</g>
<defs>
<clipPath id="clip0">
<rect width="39" height="39" />
</clipPath>
</defs>
</svg>
