<svg width="40" height="28" viewBox="0 0 40 28" fill="none" xmlns="http://www.w3.org/2000/svg">
<path d="M0.244138 14.5893L12.7441 27.0893C13.0697 27.4149 13.597 27.4149 13.9225 27.0893C14.248 26.7638 14.248 26.2364 13.9225 25.911L2.84499 14.8335L39.1666 14.8335C39.6273 14.8335 40 14.4607 40 14.0001C40 13.5395 39.6273 13.1668 39.1666 13.1668L2.84499 13.1668L13.9225 2.08934C14.248 1.76379 14.248 1.23645 13.9225 0.91098C13.7598 0.748245 13.5465 0.666839 13.3333 0.666839C13.1201 0.666839 12.9069 0.748245 12.7441 0.91098L0.244058 13.411C-0.0814083 13.7364 -0.0814083 14.2638 0.244138 14.5893Z" fill="#A18965"/>
</svg>
