<svg width="32" height="32" viewBox="0 0 32 32" fill="none" xmlns="http://www.w3.org/2000/svg">
<path d="M31.7213 30.3681L23.9448 22.5916C26.0309 20.1933 27.2938 17.0643 27.2938 13.6443C27.2938 6.11619 21.1705 0 13.6495 0C6.12131 0 0.00512695 6.12328 0.00512695 13.6443C0.00512695 21.1654 6.12841 27.2887 13.6495 27.2887C17.0694 27.2887 20.1985 26.0257 22.5967 23.9397L30.3732 31.7162C30.5577 31.9007 30.806 32 31.0473 32C31.2885 32 31.5368 31.9078 31.7213 31.7162C32.0903 31.3472 32.0903 30.737 31.7213 30.3681ZM1.91377 13.6443C1.91377 7.17339 7.17852 1.91574 13.6424 1.91574C20.1133 1.91574 25.371 7.18049 25.371 13.6443C25.371 20.1082 20.1133 25.38 13.6424 25.38C7.17852 25.38 1.91377 20.1153 1.91377 13.6443Z" fill="#AFAFAE"/>
</svg>
