<svg width="29" height="29" viewBox="0 0 29 29" fill="none" xmlns="http://www.w3.org/2000/svg">
<path d="M14.5 0C6.50484 0 0 6.50484 0 14.5C0 22.4952 6.50484 29 14.5 29C22.4952 29 29 22.4952 29 14.5C29 6.50484 22.4952 0 14.5 0ZM14.5 27.7917C7.17093 27.7917 1.20831 21.8291 1.20831 14.5C1.20831 7.17093 7.17093 1.20831 14.5 1.20831C21.8291 1.20831 27.7917 7.17093 27.7917 14.5C27.7917 21.8291 21.8291 27.7917 14.5 27.7917Z" fill="#F04141"/>
<path d="M22.3545 13.8957H15.1045V6.64569C15.1045 6.31174 14.8343 6.0415 14.5004 6.0415C14.1664 6.0415 13.8962 6.31174 13.8962 6.64569V13.8957H6.64618C6.31222 13.8957 6.04199 14.1659 6.04199 14.4999C6.04199 14.8338 6.31222 15.1041 6.64618 15.1041H13.8962V22.3541C13.8962 22.688 14.1664 22.9582 14.5004 22.9582C14.8343 22.9582 15.1045 22.688 15.1045 22.3541V15.1041H22.3545C22.6885 15.1041 22.9587 14.8338 22.9587 14.4999C22.9587 14.1659 22.6885 13.8957 22.3545 13.8957Z" fill="#F04141"/>
</svg>
