<svg width="41" height="41" viewBox="0 0 41 41"  xmlns="http://www.w3.org/2000/svg">
<path d="M30.3406 39.502H28.9833V40.8592H30.3406V39.502Z" />
<path d="M25.5105 29.0028L24.3154 29.6462L29.066 38.4689L30.261 37.8255L25.5105 29.0028Z" />
<path d="M8.14435 19.6224L9.10395 18.6628L5.23095 14.7898V12.6372L8.14435 15.5506L9.10395 14.591L5.03211 10.5191L5.02736 10.5239C4.77618 10.2589 4.35788 10.2478 4.09287 10.4989C4.08566 10.5057 4.07871 10.5127 4.07184 10.5198L0 14.5916L0.959596 15.5512L3.87367 12.6372V14.7898L0.000678639 18.6628L0.960275 19.6224L3.87367 16.709V18.8616L0.000678639 22.7346L0.960275 23.6942L3.87367 20.7808V22.9335L0.000678639 26.8065L0.960275 27.7661L3.87367 24.8527V40.8591H5.23095V24.8527L8.14435 27.7661L9.10395 26.8065L5.23095 22.9335V20.7808L8.14435 23.6942L9.10395 22.7346L5.23095 18.8616V16.709L8.14435 19.6224Z" />
<path d="M40.0404 22.3371L41 21.3775L37.127 17.5045V15.3518L40.0404 18.2652L41 17.3056L36.9281 13.2338L36.9234 13.2386C36.6722 12.9736 36.2538 12.9624 35.9889 13.2136C35.9817 13.2204 35.9747 13.2274 35.9678 13.2345L31.896 17.3063L32.8556 18.2659L35.7697 15.3518V17.5045L31.8967 21.3775L32.8563 22.3371L35.7697 19.4237V21.5763L31.8967 25.4493L32.8563 26.4089L35.7697 23.4955V30.001L34.3445 26.9966C34.2329 26.7601 33.9953 26.6089 33.7338 26.6078H24.9115V21.4596L27.8249 24.373L28.7844 23.4134L24.9115 19.5404V17.3878L27.8249 20.3012L28.7844 19.3416L24.9115 15.4686V13.3159L27.8249 16.2293L28.7844 15.2697L24.9115 11.3967V9.24409L27.8249 12.1575L28.7844 11.1979L24.7126 7.12606L24.7079 7.13081C24.4567 6.86588 24.0383 6.85469 23.7734 7.10587C23.7662 7.11265 23.7592 7.11961 23.7523 7.12674L19.6805 11.1986L20.6401 12.1582L23.5542 9.24409V11.3967L19.6812 15.2697L20.6408 16.2293L23.5542 13.3159V15.4686L19.6812 19.3416L20.6408 20.3012L23.5542 17.3878V19.5404L19.6812 23.4134L20.6408 24.373L23.5542 21.4596V26.6078H14.0532C13.8618 26.6089 13.68 26.6919 13.5537 26.8358C13.5136 26.8759 13.4796 26.9216 13.4526 26.9715L6.66623 39.8657C6.49233 40.1977 6.62051 40.6078 6.95253 40.7817C7.04949 40.8325 7.1574 40.8591 7.26683 40.8592H27.626V39.5019H21.2468L15.177 27.965H33.3042L38.7693 39.5019H31.6978V40.8592H39.8415C40.2163 40.8577 40.519 40.5528 40.5176 40.178C40.5173 40.0784 40.495 39.9801 40.4523 39.8901L37.127 32.8655V23.4955L40.0404 26.4089L41 25.4493L37.127 21.5763V19.4237L40.0404 22.3371ZM13.3746 39.5019H8.39065L13.3746 30.0328V39.5019ZM19.7158 39.5019H14.7319V30.0328L19.7158 39.5019Z" />
<path d="M13.0355 0.140625C12.6607 0.14071 12.3569 0.444571 12.357 0.819434C12.357 0.999359 12.4285 1.17182 12.5557 1.29906C13.2565 1.92893 13.7094 2.78834 13.8329 3.72248C13.9615 4.8682 13.137 5.90126 11.9913 6.02986C11.8365 6.04725 11.6802 6.04725 11.5255 6.02986L11.5275 6.02782C10.5934 5.9044 9.73398 5.45149 9.10412 4.75062C8.83902 4.48562 8.40936 4.4857 8.14435 4.75079C8.01719 4.87804 7.94568 5.05058 7.94568 5.23042C7.94568 8.04143 10.2245 10.3202 13.0355 10.3202C15.8465 10.3202 18.1253 8.04143 18.1253 5.23042C18.1253 2.41941 15.8465 0.140625 13.0355 0.140625ZM16.3967 6.85729C15.4982 8.71261 13.2658 9.48829 11.4106 8.58977C10.6552 8.22399 10.0452 7.61431 9.67901 6.85916C10.2195 7.15029 10.8141 7.32699 11.4258 7.37832C12.4491 7.47137 13.4616 7.10949 14.194 6.38886C15.3402 5.15611 15.532 3.31352 14.6643 1.87116C16.5195 2.76967 17.2951 5.00206 16.3967 6.85729Z" />
</svg>
