<?xml version="1.0" encoding="utf-8"?><svg width="17" height="17" xmlns="http://www.w3.org/2000/svg" viewBox="0 0 17 17"><path d="M12.062 0H4.938A4.944 4.944 0 000 4.938v7.124A4.944 4.944 0 004.938 17h7.124A4.944 4.944 0 0017 12.062V4.938A4.944 4.944 0 0012.062 0zm3.61 12.062c0 1.99-1.62 3.61-3.61 3.61H4.938c-1.99 0-3.61-1.62-3.61-3.61V4.938c0-1.99 1.62-3.61 3.61-3.61h7.124c1.99 0 3.61 1.62 3.61 3.61v7.124z"/><path d="M8.5 3.918A4.587 4.587 0 003.918 8.5 4.587 4.587 0 008.5 13.082 4.587 4.587 0 0013.082 8.5 4.587 4.587 0 008.5 3.918zm0 7.836A3.258 3.258 0 015.246 8.5 3.258 3.258 0 018.5 5.246 3.258 3.258 0 0111.754 8.5 3.258 3.258 0 018.5 11.754zM13.148 4.516a.664.664 0 100-1.329.664.664 0 000 1.329z"/></svg>