<?xml version="1.0" encoding="utf-8"?><svg width="21" height="13" xmlns="http://www.w3.org/2000/svg" viewBox="0 0 21 13"><path d="M17.426 7.224c-.34-.428-.243-.62 0-1.002.004-.005 2.807-3.877 3.095-5.19l.002-.002c.144-.478 0-.83-.694-.83h-2.296c-.584 0-.854.302-.998.64 0 0-1.17 2.798-2.823 4.612-.534.524-.78.692-1.072.692-.143 0-.366-.168-.366-.647V1.03c0-.574-.164-.83-.648-.83h-3.61c-.367 0-.585.268-.585.517 0 .544.827.67.913 2.2V6.24c0 .728-.132.862-.425.862-.78 0-2.675-2.81-3.798-6.025C3.895.453 3.673.2 3.084.2H.788C.132.2 0 .503 0 .84c0 .596.78 3.563 3.63 7.483C5.527 11 8.201 12.45 10.634 12.45c1.462 0 1.64-.322 1.64-.876 0-2.557-.132-2.798.6-2.798.34 0 .925.168 2.29 1.459 1.56 1.53 1.816 2.215 2.69 2.215h2.295c.655 0 .987-.322.796-.957-.437-1.336-3.387-4.085-3.52-4.269z"/></svg>