<svg width="39" height="39" xmlns="http://www.w3.org/2000/svg"><g clip-path="url(#clip0)"><path d="M30.427 16.645c-.104 0-.21.002-.318.006a8.59 8.59 0 00-3.719-2.25c.322-3.362-1.165-6.578-2.637-8.86a.583.583 0 10-.98.633c1.345 2.084 2.704 4.986 2.47 7.97a8.546 8.546 0 00-4.92.71v-1.043l2.805-2.804c.225-.226.248-.597.03-.83a.583.583 0 00-.838-.012l-1.996 1.996V9.037c0-.32-.246-.598-.565-.607a.583.583 0 00-.601.583v3.148l-1.996-1.996a.583.583 0 10-.825.825l2.82 2.82v1.707a8.64 8.64 0 00-2.567 2.718c-.089-2.414-.831-4.48-2.225-6.171l-.044-.051c.67-4.45 4.223-8.401 5.42-9.625.312.317.78.816 1.314 1.456a.584.584 0 00.895-.748c-1.002-1.204-1.778-1.921-1.814-1.954a.583.583 0 00-.79 0c-.209.192-4.818 4.485-6.018 9.846C11.505 9.355 8.93 8.185 5.78 7.573 2.943 7.02.66 7.109.566 7.113a.583.583 0 00-.559.558c-.003.096-.091 2.377.46 5.215.74 3.803 2.292 6.771 4.491 8.584.265.218.54.418.822.604C2.138 25.09.14 29.484.052 29.68a.583.583 0 00.25.749c.228.126 4.88 2.662 9.857 2.662.71 0 1.427-.053 2.138-.17 1.338 2.997 4.346 5.091 7.834 5.091a8.582 8.582 0 007.62-4.647c.86.283 1.758.427 2.676.427 1.51 0 2.973-.392 4.268-1.137a.581.581 0 00.187-.829.586.586 0 00-.779-.176 7.372 7.372 0 01-3.676.975 7.378 7.378 0 01-2.21-.337c.315-.892.487-1.85.487-2.85 0-3.38-1.966-6.308-4.815-7.704a7.376 7.376 0 016.538-3.923c4.084 0 7.407 3.323 7.407 7.407a7.388 7.388 0 01-1.573 4.564.584.584 0 00.064.794c.252.23.645.193.855-.075A8.552 8.552 0 0039 25.218c0-4.727-3.846-8.573-8.573-8.573zM5.703 20.573c-2.506-2.065-3.605-5.426-4.085-7.882a24.922 24.922 0 01-.45-4.418c.826.007 2.487.075 4.39.445 4.465.867 6.764 2.701 7.907 4.088 1.785 2.164 2.357 5.07 1.708 8.648L13.39 19.67v-5.18a.583.583 0 10-1.166 0v4.014l-2.567-2.567v-3.99a.583.583 0 10-1.166 0v2.824l-2.226-2.226a.583.583 0 10-.825.824l2.226 2.226H4.845a.583.583 0 000 1.166h3.989l2.566 2.567H7.385a.583.583 0 100 1.166h5.18l1.783 1.783c-3.576.65-6.48.078-8.645-1.705zm4.348 5.572l-3.507-1.752a.583.583 0 00-.52 1.043l2.462 1.23-4.028 1.345a.583.583 0 10.369 1.107l4.122-1.376-1.293 2.588a.583.583 0 001.043.52l1.814-3.63 1.485-.496a8.54 8.54 0 00-.44 2.715c0 .82.116 1.614.332 2.366-4.347.624-9.027-1.414-10.53-2.145.65-1.27 2.575-4.684 5.512-6.967 1.4.674 2.987 1.013 4.754 1.013.736 0 1.503-.06 2.3-.178a8.618 8.618 0 00-1.291 1.755l-2.584.862zm17.487 3.294c0 4.084-3.323 7.407-7.407 7.407s-7.407-3.323-7.407-7.407 3.323-7.407 7.407-7.407 7.407 3.323 7.407 7.407zm-4.734-8.146a8.54 8.54 0 00-2.673-.427c-1.252 0-2.442.27-3.516.754.49-3.613 3.595-6.408 7.34-6.408 1.693 0 3.33.584 4.635 1.63a8.536 8.536 0 00-5.786 4.45z"/><path d="M22.36 27.073a2.705 2.705 0 00-2.702 2.702 2.705 2.705 0 002.702 2.702 2.705 2.705 0 002.702-2.702 2.705 2.705 0 00-2.702-2.702zm0 4.238a1.538 1.538 0 01-1.536-1.536c0-.846.689-1.535 1.536-1.535.846 0 1.536.689 1.536 1.535 0 .847-.69 1.536-1.536 1.536zm7.912-12.371c-1.748 0-3.065.796-3.065 1.851s1.317 1.85 3.065 1.85c1.747 0 3.065-.795 3.065-1.85 0-1.055-1.318-1.85-3.065-1.85zm1.49 2.228c-.383.195-.926.307-1.49.307s-1.107-.112-1.49-.307c-.3-.153-.41-.31-.41-.377s.11-.223.41-.377c.383-.195.925-.307 1.49-.307.564 0 1.107.112 1.49.307.3.154.409.31.409.377 0 .068-.11.224-.41.377z"/></g><defs><clipPath id="clip0"><path d="M0 0h39v39H0z"/></clipPath></defs></svg>