<svg width="29" height="29" fill="none" xmlns="http://www.w3.org/2000/svg"><path d="M14.5 0C6.505 0 0 6.505 0 14.5S6.505 29 14.5 29 29 22.495 29 14.5 22.495 0 14.5 0zm0 27.792c-7.33 0-13.292-5.963-13.292-13.292 0-7.33 5.963-13.292 13.292-13.292 7.33 0 13.292 5.963 13.292 13.292 0 7.33-5.963 13.292-13.292 13.292z" fill="#F04141"/><path d="M22.355 13.896h-7.25v-7.25a.604.604 0 10-1.209 0v7.25h-7.25a.604.604 0 100 1.208h7.25v7.25a.604.604 0 101.208 0v-7.25h7.25a.604.604 0 100-1.208z" fill="#F04141"/></svg>