<svg width="41" height="41" xmlns="http://www.w3.org/2000/svg"><path d="M30.34 39.502h-1.357v1.357h1.358v-1.357zm-4.83-10.499l-1.195.643 4.751 8.823 1.195-.644-4.75-8.822zM8.144 19.622l.96-.96L5.23 14.79v-2.153l2.913 2.914.96-.96-4.072-4.072-.005.005a.661.661 0 00-.955-.004L0 14.592l.96.96 2.914-2.915v2.153L0 18.663l.96.96 2.913-2.914v2.153L0 22.735l.96.96 2.913-2.914v2.152L0 26.806l.96.96 2.913-2.913v16.006H5.23V24.853l2.913 2.913.96-.96-3.873-3.873v-2.152l2.913 2.913.96-.96-3.873-3.872v-2.153l2.913 2.913z"/><path d="M40.04 22.337l.96-.96-3.873-3.872v-2.153l2.913 2.913.96-.96-4.072-4.071-.005.005a.66.66 0 00-.955-.005l-4.072 4.072.96.96 2.914-2.914v2.152l-3.873 3.873.96.96 2.913-2.913v2.152l-3.873 3.873.96.96 2.913-2.913V30l-1.426-3.004a.678.678 0 00-.61-.39H24.91V21.46l2.914 2.913.96-.96-3.873-3.873v-2.152l2.913 2.913.96-.96-3.873-3.872v-2.153l2.913 2.913.96-.96-3.873-3.872V9.244l2.913 2.914.96-.96-4.072-4.072-.005.005a.661.661 0 00-.956-.004l-4.072 4.072.96.96 2.914-2.915v2.153L19.68 15.27l.96.96 2.913-2.914v2.153l-3.873 3.873.96.96 2.913-2.914v2.152l-3.873 3.873.96.96 2.913-2.913v5.148h-9.5a.67.67 0 00-.5.228.587.587 0 00-.101.136L6.666 39.865a.679.679 0 00.6.993h20.36v-1.357h-6.38l-6.069-11.537h18.127l5.465 11.537h-7.071v1.357h8.144a.679.679 0 00.61-.969l-3.325-7.025v-9.37l2.913 2.914.96-.96-3.873-3.873v-2.152l2.913 2.913zM13.375 39.502H8.39l4.984-9.47v9.47zm6.34 0h-4.983v-9.47l4.984 9.47zM13.036.14a.679.679 0 00-.48 1.16 3.956 3.956 0 011.277 2.422 2.088 2.088 0 01-2.308 2.308l.002-.002A3.955 3.955 0 019.104 4.75a.679.679 0 00-1.158.48 5.09 5.09 0 105.09-5.09zm3.36 6.717a3.732 3.732 0 01-6.717.002c.54.291 1.135.468 1.747.52a3.496 3.496 0 002.768-.99 3.776 3.776 0 00.47-4.518 3.733 3.733 0 011.733 4.986z"/></svg>