<svg width="33" height="33" fill="none" xmlns="http://www.w3.org/2000/svg"><path d="M23.662 17.17a.717.717 0 10-1.014-1.014l-5.433 5.433V7.155a.72.72 0 00-1.439 0V21.58l-5.432-5.432a.716.716 0 00-1.224.511c.001.19.076.374.21.51l6.655 6.656c.135.136.32.211.51.21a.741.741 0 00.511-.21l6.656-6.655z" fill="#006C9E"/><path d="M31.966 16.509A15.468 15.468 0 005.559 5.572c-6.04 6.04-6.04 15.834 0 21.874 6.04 6.04 15.833 6.04 21.874 0a15.372 15.372 0 004.533-10.937zm-29.501 0c0-7.735 6.296-14.03 14.03-14.03 7.736 0 14.032 6.295 14.032 14.03 0 7.735-6.296 14.03-14.031 14.03S2.465 24.245 2.465 16.51z" fill="#4C828F"/></svg>